<?xml version="1.0" standalone="no"?>
<!DOCTYPE svg PUBLIC "-//W3C//DTD SVG 20010904//EN"
 "http://www.w3.org/TR/2001/REC-SVG-20010904/DTD/svg10.dtd">
<svg version="1.0" xmlns="http://www.w3.org/2000/svg"
 width="820.000000pt" height="820.000000pt" viewBox="0 0 820.000000 820.000000"
 preserveAspectRatio="xMidYMid meet">
<metadata>
Created by potrace 1.14, written by Peter Selinger 2001-2017
</metadata>
<g transform="translate(0.000000,820.000000) scale(0.100000,-0.100000)"
fill="#000000" stroke="none">
<path d="M3869 8196 c-2 -2 -50 -6 -107 -10 -56 -4 -108 -9 -115 -11 -6 -2
-39 -6 -72 -9 -33 -3 -69 -8 -80 -10 -11 -2 -54 -9 -95 -16 -114 -18 -357 -75
-472 -110 -728 -222 -1354 -617 -1860 -1172 -139 -152 -295 -352 -385 -493
-25 -38 -53 -81 -62 -95 -10 -14 -29 -45 -43 -70 -14 -25 -45 -79 -69 -120
-47 -83 -152 -300 -194 -400 -31 -77 -85 -219 -91 -240 -2 -8 -15 -49 -29 -90
-32 -93 -102 -359 -110 -420 -4 -24 -8 -47 -10 -50 -5 -8 -36 -195 -40 -246
-2 -23 -6 -53 -9 -68 -13 -73 -21 -247 -20 -476 0 -227 4 -324 20 -452 15
-128 23 -184 30 -218 3 -13 7 -38 9 -55 22 -167 130 -542 227 -785 46 -116
177 -393 231 -485 63 -111 88 -150 168 -270 206 -309 475 -614 738 -835 30
-25 59 -50 65 -56 31 -30 271 -207 351 -259 472 -307 1036 -531 1555 -615 41
-7 83 -14 94 -16 10 -2 44 -6 75 -9 31 -4 67 -8 81 -11 144 -25 777 -25 909 1
10 2 42 6 72 9 30 3 68 8 84 11 17 3 55 10 85 15 30 5 69 12 85 15 17 3 44 8
60 11 17 3 37 7 45 10 8 3 26 8 40 10 130 24 425 118 625 199 113 46 377 175
485 238 80 47 108 64 248 154 259 168 606 476 822 732 25 29 53 63 64 75 69
79 280 377 316 446 7 14 16 27 19 30 3 3 12 16 20 30 195 342 314 620 416 973
19 65 37 128 39 140 3 12 12 56 21 97 9 41 18 86 21 100 2 14 7 36 10 48 2 13
7 43 10 65 3 23 8 53 10 67 7 39 23 173 31 268 16 172 9 635 -12 792 -2 19 -7
55 -10 80 -6 49 -10 75 -25 160 -14 83 -17 99 -34 175 -68 316 -174 619 -320
920 -77 157 -200 375 -248 436 -15 20 -28 39 -28 42 0 22 -237 329 -360 467
-98 109 -245 252 -395 385 -95 84 -452 345 -472 345 -4 0 -14 6 -22 14 -9 7
-36 25 -61 38 -25 14 -79 45 -120 68 -311 179 -764 347 -1145 425 -91 18 -246
45 -293 50 -20 2 -62 6 -92 10 -30 3 -73 8 -95 11 -47 5 -581 14 -586 10z"/>
</g>
</svg>
